REM DIRINDEX 1\3,1\2\4,1\2\5,1\2\6
REM DIRNAME cjc137,folder01,folder02,folder03,folder04,folder05
TITLE ""
FILE "113.mp3" MP3
  TRACK 01 AUDIO
    TITLE "4:cjc137_4665"
    INDEX 01 00:00:00
  TRACK 02 AUDIO
    TITLE "0:"
    INDEX 01 00:01:01
  TRACK 03 AUDIO
    TITLE "6:cjc137_4666"
    INDEX 01 00:01:13
  TRACK 04 AUDIO
    TITLE "0:"
    INDEX 01 00:02:10
  TRACK 05 AUDIO
    TITLE "5:cjc137_4667"
    INDEX 01 00:02:14
  TRACK 06 AUDIO
    TITLE "0:"
    INDEX 01 00:03:17
  TRACK 07 AUDIO
    TITLE "4:cjc137_4668"
    INDEX 01 00:04:25
  TRACK 08 AUDIO
    TITLE "0:"
    INDEX 01 00:05:38
  TRACK 09 AUDIO
    TITLE "6:cjc137_4669"
    INDEX 01 00:05:44
  TRACK 10 AUDIO
    TITLE "0:"
    INDEX 01 00:06:61
  TRACK 11 AUDIO
    TITLE "5:cjc137_4670"
    INDEX 01 00:06:65
  TRACK 12 AUDIO
    TITLE "0:"
    INDEX 01 00:08:01
  TRACK 13 AUDIO
    TITLE "4:cjc137_4671"
    INDEX 01 00:09:12
  TRACK 14 AUDIO
    TITLE "0:"
    INDEX 01 00:10:25
  TRACK 15 AUDIO
    TITLE "6:cjc137_4672"
    INDEX 01 00:10:33
  TRACK 16 AUDIO
    TITLE "0:"
    INDEX 01 00:11:25
  TRACK 17 AUDIO
    TITLE "5:cjc137_4673"
    INDEX 01 00:11:35
  TRACK 18 AUDIO
    TITLE "0:"
    INDEX 01 00:12:50
  TRACK 19 AUDIO
    TITLE "4:cjc137_4674"
    INDEX 01 00:13:59
  TRACK 20 AUDIO
    TITLE "0:"
    INDEX 01 00:14:64
  TRACK 21 AUDIO
    TITLE "6:cjc137_4675"
    INDEX 01 00:14:72
  TRACK 22 AUDIO
    TITLE "0:"
    INDEX 01 00:15:70
  TRACK 23 AUDIO
    TITLE "5:cjc137_4676"
    INDEX 01 00:16:02
  TRACK 24 AUDIO
    TITLE "0:"
    INDEX 01 00:17:08
  TRACK 25 AUDIO
    TITLE "4:cjc137_4677"
    INDEX 01 00:18:15
  TRACK 26 AUDIO
    TITLE "0:"
    INDEX 01 00:19:28
  TRACK 27 AUDIO
    TITLE "6:cjc137_4678"
    INDEX 01 00:19:34
  TRACK 28 AUDIO
    TITLE "0:"
    INDEX 01 00:20:28
  TRACK 29 AUDIO
    TITLE "5:cjc137_4679"
    INDEX 01 00:20:32
  TRACK 30 AUDIO
    TITLE "0:"
    INDEX 01 00:21:43
  TRACK 31 AUDIO
    TITLE "4:cjc137_4680"
    INDEX 01 00:22:54
  TRACK 32 AUDIO
    TITLE "0:"
    INDEX 01 00:24:16
  TRACK 33 AUDIO
    TITLE "6:cjc137_4681"
    INDEX 01 00:24:22
  TRACK 34 AUDIO
    TITLE "0:"
    INDEX 01 00:25:62
  TRACK 35 AUDIO
    TITLE "5:cjc137_4682"
    INDEX 01 00:25:70
  TRACK 36 AUDIO
    TITLE "0:"
    INDEX 01 00:27:28
  TRACK 37 AUDIO
    TITLE "4:cjc137_4683"
    INDEX 01 00:28:37
  TRACK 38 AUDIO
    TITLE "0:"
    INDEX 01 00:29:58
  TRACK 39 AUDIO
    TITLE "6:cjc137_4684"
    INDEX 01 00:29:64
  TRACK 40 AUDIO
    TITLE "0:"
    INDEX 01 00:30:71
  TRACK 41 AUDIO
    TITLE "5:cjc137_4685"
    INDEX 01 00:31:00
  TRACK 42 AUDIO
    TITLE "0:"
    INDEX 01 00:32:19
  TRACK 43 AUDIO
    TITLE "4:cjc137_4686"
    INDEX 01 00:33:30
  TRACK 44 AUDIO
    TITLE "0:"
    INDEX 01 00:34:40
  TRACK 45 AUDIO
    TITLE "6:cjc137_4687"
    INDEX 01 00:34:47
  TRACK 46 AUDIO
    TITLE "0:"
    INDEX 01 00:35:55
  TRACK 47 AUDIO
    TITLE "5:cjc137_4688"
    INDEX 01 00:35:64
  TRACK 48 AUDIO
    TITLE "0:"
    INDEX 01 00:36:74
  TRACK 49 AUDIO
    TITLE "4:cjc137_4689"
    INDEX 01 00:38:10
  TRACK 50 AUDIO
    TITLE "0:"
    INDEX 01 00:39:13
  TRACK 51 AUDIO
    TITLE "6:cjc137_4690"
    INDEX 01 00:39:19
  TRACK 52 AUDIO
    TITLE "0:"
    INDEX 01 00:40:28
  TRACK 53 AUDIO
    TITLE "5:cjc137_4691"
    INDEX 01 00:40:34
  TRACK 54 AUDIO
    TITLE "0:"
    INDEX 01 00:41:40
  TRACK 55 AUDIO
    TITLE "4:cjc137_4692"
    INDEX 01 00:42:47
  TRACK 56 AUDIO
    TITLE "0:"
    INDEX 01 00:43:64
  TRACK 57 AUDIO
    TITLE "6:cjc137_4693"
    INDEX 01 00:43:68
  TRACK 58 AUDIO
    TITLE "0:"
    INDEX 01 00:45:32
  TRACK 59 AUDIO
    TITLE "5:cjc137_4694"
    INDEX 01 00:45:37
  TRACK 60 AUDIO
    TITLE "0:"
    INDEX 01 00:46:53
  TRACK 61 AUDIO
    TITLE "4:cjc137_4695"
    INDEX 01 00:47:60
  TRACK 62 AUDIO
    TITLE "0:"
    INDEX 01 00:49:04
  TRACK 63 AUDIO
    TITLE "6:cjc137_4696"
    INDEX 01 00:49:12
  TRACK 64 AUDIO
    TITLE "0:"
    INDEX 01 00:51:05
  TRACK 65 AUDIO
    TITLE "5:cjc137_4697"
    INDEX 01 00:51:11
  TRACK 66 AUDIO
    TITLE "0:"
    INDEX 01 00:52:32
  TRACK 67 AUDIO
    TITLE "4:cjc137_4698"
    INDEX 01 00:53:37
  TRACK 68 AUDIO
    TITLE "0:"
    INDEX 01 00:54:62
  TRACK 69 AUDIO
    TITLE "6:cjc137_4699"
    INDEX 01 00:54:66
  TRACK 70 AUDIO
    TITLE "0:"
    INDEX 01 00:56:04
  TRACK 71 AUDIO
    TITLE "5:cjc137_4700"
    INDEX 01 00:56:08
  TRACK 72 AUDIO
    TITLE "0:"
    INDEX 01 00:57:31
  TRACK 73 AUDIO
    TITLE "4:cjc137_4701"
    INDEX 01 00:58:40
  TRACK 74 AUDIO
    TITLE "0:"
    INDEX 01 00:59:43
  TRACK 75 AUDIO
    TITLE "6:cjc137_4702"
    INDEX 01 00:59:47
  TRACK 76 AUDIO
    TITLE "0:"
    INDEX 01 01:00:70
  TRACK 77 AUDIO
    TITLE "5:cjc137_4703"
    INDEX 01 01:01:01
  TRACK 78 AUDIO
    TITLE "0:"
    INDEX 01 01:02:05
  TRACK 79 AUDIO
    TITLE "4:cjc137_4704"
    INDEX 01 01:03:12
  TRACK 80 AUDIO
    TITLE "0:"
    INDEX 01 01:04:25
  TRACK 81 AUDIO
    TITLE "6:cjc137_4705"
    INDEX 01 01:04:33
  TRACK 82 AUDIO
    TITLE "0:"
    INDEX 01 01:05:58
  TRACK 83 AUDIO
    TITLE "5:cjc137_4706"
    INDEX 01 01:05:64
  TRACK 84 AUDIO
    TITLE "0:"
    INDEX 01 01:07:02
